<svg xmlns="http://www.w3.org/2000/svg" viewBox="0 0 1158.06 186.85"><path d="M150.87,86.74c-5.14-5.63-12-10.19-20.48-13.56S112,68.27,99.66,68.27H62.47a25.21,25.21,0,0,1-7.93-.93,7.78,7.78,0,0,1-2.9-1.56,3.81,3.81,0,0,1-1-1.57,12.06,12.06,0,0,1-.55-3.63c0-3.41,1-5,1.94-5.93.39-.41,2.08-1.76,7.63-1.76h67.57a25,25,0,1,0,0-50.06H60.58c-10,0-18.92,1.37-26.39,4.08a51.66,51.66,0,0,0-19.58,12.2A47.66,47.66,0,0,0,3.25,38,70,70,0,0,0,0,59.64,73.71,73.71,0,0,0,2.63,79,48.22,48.22,0,0,0,13,98.3c5,5.71,11.79,10.3,20.18,13.61,8.13,3.22,18,4.78,30.23,4.78h37a26.93,26.93,0,0,1,8.53,1.06,9.56,9.56,0,0,1,3.54,1.86,4,4,0,0,1,1.1,1.73,12.7,12.7,0,0,1,.64,4c0,3.76-1.18,5.47-2.2,6.53-1.28,1.34-4.39,2.1-8.55,2.1H27.86a25,25,0,1,0,0,50.07h74.63c10.38,0,19.49-1.42,27.06-4.22a53.26,53.26,0,0,0,19.74-12.42,48.93,48.93,0,0,0,11.56-19,69.72,69.72,0,0,0,3.4-22.12,77.71,77.71,0,0,0-2.61-19.8A46.79,46.79,0,0,0,150.87,86.74Z" fill="#1a1a1a"/><path d="M346.44,27.67C342.7,17.7,336.87,10.4,329.15,6c-7.09-4-15.86-6-26.09-6s-19.23,2-26.32,6c-7.67,4.34-13.55,11.57-17.47,21.5L211,149.79A25,25,0,0,0,234.26,184H235a24.9,24.9,0,0,0,23.29-15.85l44.37-112.6L345,167.83A25.14,25.14,0,0,0,368.46,184h1.1A25,25,0,0,0,393,150.1Z" fill="#1a1a1a"/><path d="M555,134H507.17a38.79,38.79,0,0,1-12.06-1.52,15.47,15.47,0,0,1-5.83-3.21,8.9,8.9,0,0,1-2.4-3.93,26,26,0,0,1-1.05-7.5V27.86a25,25,0,0,0-50.07,0V118a83.79,83.79,0,0,0,3.7,25.38,54.49,54.49,0,0,0,12.86,21.68,59.24,59.24,0,0,0,22.4,14.13c8.65,3.19,19,4.8,30.8,4.8H555A25,25,0,1,0,555,134Z" fill="#1a1a1a"/><path d="M653.6,2.83a25.06,25.06,0,0,0-25,25V159a25,25,0,1,0,50.06,0V27.86A25.06,25.06,0,0,0,653.6,2.83Z" fill="#1a1a1a"/><path d="M905.5,2.83a25.11,25.11,0,0,0-25.27,25V133.59L835.77,36.34c-3.89-10.56-9.38-19.14-16.31-25.51C811.63,3.64,800.65,0,786.84,0,771.3,0,759.3,4.39,751.17,13.05c-7.93,8.46-12,19.46-12,32.7V159a25,25,0,0,0,50.07,0V53.25l44.42,97.18a72.87,72.87,0,0,0,6.49,13.89,48.79,48.79,0,0,0,10.21,12,42.67,42.67,0,0,0,14.62,8,58.76,58.76,0,0,0,17.88,2.53c15.35,0,27.29-4.37,35.5-13,8.05-8.48,12.13-19.57,12.13-33v-113A25.06,25.06,0,0,0,905.5,2.83Z" fill="#1a1a1a"/><path d="M1156.42,150.1,1109.9,27.67c-3.74-10-9.56-17.27-17.29-21.64-7.09-4-15.86-6-26.09-6s-19.23,2-26.31,6c-7.67,4.34-13.55,11.57-17.48,21.5L974.44,149.79A25,25,0,0,0,997.72,184h.73a24.89,24.89,0,0,0,23.29-15.85l44.38-112.6,42.38,112.26A25.15,25.15,0,0,0,1131.92,184h1.1a25,25,0,0,0,23.4-33.92Z" fill="#1a1a1a"/></svg>