<?xml version="1.0" encoding="UTF-8"?>
<!-- Generated by Pixelmator Pro 3.1.1 -->
<svg width="168" height="183" viewBox="0 0 168 183" xmlns="http://www.w3.org/2000/svg" xmlns:xlink="http://www.w3.org/1999/xlink">
    <path id="Path-copy" fill="#1a1a1a" stroke="none" d="M 151.869995 84.889999 C 146.729996 79.260002 139.869995 74.700005 131.389999 71.330002 C 122.910004 67.959999 113 66.419998 100.660004 66.419998 L 63.470001 66.419998 C 60.794048 66.533218 58.117149 66.219284 55.540001 65.489998 C 54.473099 65.182877 53.484287 64.650963 52.639999 63.93 C 52.181988 63.497398 51.838398 62.957962 51.639999 62.360001 C 51.27248 61.185158 51.086998 59.960976 51.09 58.730003 C 51.09 55.319992 52.09 53.729996 53.029999 52.800003 C 53.419998 52.389999 55.110001 51.039993 60.66 51.039993 L 128.230011 51.039993 C 142.05368 51.039993 153.259995 39.833694 153.259995 26.009995 C 153.259995 12.18631 142.05368 0.979996 128.230011 0.979996 L 61.580002 0.979996 C 51.580002 0.979996 42.66 2.350006 35.189999 5.059998 C 27.827141 7.59874 21.133589 11.769379 15.61 17.259995 C 10.39925 22.582458 6.508534 29.052155 4.25 36.149994 C 2.038914 43.148346 0.942183 50.450897 1 57.790001 C 1.013723 64.331444 1.898157 70.841957 3.63 77.150002 C 5.559971 84.293808 9.10822 90.897591 14 96.450005 C 19 102.160004 25.790001 106.75 34.18 110.060005 C 42.310001 113.279999 52.18 114.840004 64.410004 114.840004 L 101.410004 114.840004 C 104.291748 114.73436 107.171761 115.092247 109.940002 115.900002 C 111.23793 116.263512 112.444313 116.897377 113.480003 117.760002 C 113.99073 118.231316 114.36985 118.827568 114.580002 119.489998 C 115.005974 120.780502 115.222054 122.131012 115.220001 123.489998 C 115.220001 127.250008 114.040001 128.959991 113.019997 130.019989 C 111.739998 131.360016 108.629997 132.119995 104.470001 132.119995 L 28.860001 132.119995 C 15.033551 132.119995 3.825 143.328552 3.825 157.154999 C 3.825 170.981445 15.033551 182.189987 28.860001 182.189987 L 103.489998 182.189987 C 113.870003 182.189987 122.980003 180.769989 130.550003 177.970001 C 137.966766 175.339203 144.708374 171.097519 150.289993 165.549988 C 155.55069 160.187973 159.506195 153.686707 161.850006 146.549988 C 164.167068 139.407867 165.315186 131.938324 165.25 124.43 C 165.235245 117.745216 164.358002 111.090271 162.639999 104.630005 C 160.708038 97.272346 157.011276 90.496681 151.869995 84.889999 Z"/>
</svg>
