<?xml version="1.0" encoding="UTF-8"?>
<!-- Generated by Pixelmator Pro 3.2.3 -->
<svg width="933" height="933" viewBox="0 0 933 933" xmlns="http://www.w3.org/2000/svg" xmlns:xlink="http://www.w3.org/1999/xlink">
    <g id="Group">
        <path id="Path" fill="#000000" stroke="none" d="M 466.666656 116 C 659.65332 116 816.666687 273.013306 816.666687 466 C 816.666687 658.986694 659.65332 816 466.666656 816 C 273.679993 816 116.666664 658.986694 116.666664 466 C 116.666664 273.013306 273.679993 116 466.666656 116 M 466.666656 92.666687 C 260.466675 92.666687 93.333336 259.799988 93.333336 466 C 93.333336 672.199951 260.466675 839.333313 466.666656 839.333313 C 672.866638 839.333313 840 672.199951 840 466 C 840 259.799988 672.866638 92.666687 466.666656 92.666687 Z"/>
        <path id="path1" fill="#000000" stroke="none" d="M 466.666656 446.093323 C 477.65625 446.093323 486.567993 455.030823 486.567993 465.99469 C 486.567993 476.96344 477.656525 485.895996 466.666656 485.895996 C 455.676788 485.895996 446.76535 476.984558 446.76535 465.99469 C 446.76535 455.004822 455.676788 446.093323 466.666656 446.093323 M 466.666656 422.76001 C 442.77066 422.76001 423.432007 442.123962 423.432007 465.99469 C 423.432007 489.865295 442.79599 509.229309 466.666656 509.229309 C 490.537354 509.229309 509.901337 489.865295 509.901337 465.99469 C 509.901337 442.123962 490.562653 422.76001 466.666656 422.76001 Z"/>
        <path id="path2" fill="#000000" stroke="none" d="M 455 92.666687 L 478.333344 92.666687 L 478.333344 180.166687 L 455 180.166687 Z"/>
        <path id="path3" fill="#000000" stroke="none" d="M 455 751.839966 L 478.333344 751.839966 L 478.333344 839.340027 L 455 839.340027 Z"/>
        <path id="path4" fill="#000000" stroke="none" d="M 93.333336 454.333313 L 180.833328 454.333313 L 180.833328 477.666687 L 93.333336 477.666687 Z"/>
        <path id="path5" fill="#000000" stroke="none" d="M 752.506653 454.333313 L 840.006653 454.333313 L 840.006653 477.666687 L 752.506653 477.666687 Z"/>
        <path id="path6" fill="#000000" stroke="none" d="M 455 238.506653 L 478.333344 238.506653 L 478.333344 422.746643 L 455 422.746643 Z"/>
        <path id="path7" fill="#000000" stroke="none" d="M 695.386658 267.599976 L 710.511963 285.370667 L 506.35202 459.157349 L 491.226685 441.386658 Z"/>
    </g>
</svg>
