<?xml version="1.0" encoding="UTF-8"?>
<!-- Generated by Pixelmator Pro 3.1.1 -->
<svg width="952" height="1075" viewBox="0 0 952 1075" xmlns="http://www.w3.org/2000/svg" xmlns:xlink="http://www.w3.org/1999/xlink">
    <g id="Group">
        <path id="Path" fill="#000000" stroke="none" d="M 327.186676 311.719971 C 372.842651 271.771973 437.332001 172.47998 437.978668 171.47998 L 437.97348 171.47998 C 442.463043 164.57373 451.697479 162.605042 458.609467 167.078918 C 465.526123 171.552917 467.510529 180.781616 463.052124 187.704285 C 460.322906 191.923096 395.650787 291.490906 346.854797 334.184265 C 335.833984 343.830139 330.166779 352.476257 331.318787 357.908264 C 332.209412 362.121887 338.80838 373.32428 380.756134 386.413574 L 380.756134 386.418823 C 393.761322 390.403198 404.922821 398.89801 412.229462 410.372131 C 419.536774 421.84613 422.510651 435.5495 420.625336 449.022827 C 419.703461 455.502014 418.302399 461.908264 416.42746 468.184143 C 439.610107 474.611206 484.714111 487.257446 526.479431 499.788147 C 558.995422 509.543335 560.067444 528.329468 559.020813 535.949463 C 554.854126 566.282776 497.770142 587.673462 416.967438 589.173462 L 416.972656 589.178711 C 413.285187 589.261963 409.790405 590.855713 407.306 593.59021 C 404.821625 596.319336 403.566406 599.949463 403.837189 603.631714 C 404.384064 611.147339 404.727814 618.735718 405.066376 626.25708 C 406.972656 668.595703 409.727814 694.902466 431.858368 703.199707 C 558.051697 750.51709 674.938354 707.887207 779.285095 576.481079 L 779.279846 576.486267 C 784.415283 570.033264 793.801208 568.960266 800.253174 574.085205 C 806.711609 579.215515 807.794739 588.601196 802.669861 595.058594 C 758.429871 650.771851 697.581848 708.110596 621.403137 735.338501 C 636.621826 768.546509 668.356506 851.015869 636.523132 904.058594 L 636.528381 904.058594 C 632.273193 911.105469 623.121704 913.381531 616.064392 909.147034 C 609.007019 904.912659 606.705017 895.76709 610.918518 888.693787 C 634.325134 849.677734 608.736267 777.907104 592.543823 743.987061 C 571.669189 749.049683 550.273193 751.612183 528.794495 751.612183 C 492.045166 751.33606 455.643829 744.403931 421.362518 731.164185 C 379.17984 715.346802 377.081177 668.726807 375.222504 627.60144 C 374.894379 620.35144 374.571442 613.033447 374.040192 605.7948 L 374.04541 605.789673 C 373.180817 593.930298 377.227692 582.23761 385.238068 573.450989 C 393.253693 564.659241 404.519409 559.549622 416.410065 559.314941 C 488.150116 557.981628 521.842102 540.820251 528.478088 533.03894 C 525.212463 530.945251 521.639587 529.377502 517.889526 528.393066 C 459.029541 510.737122 393.468231 492.835754 392.810883 492.658447 C 388.513947 491.470947 384.967163 488.429199 383.139038 484.361511 C 381.310883 480.293762 381.394196 475.621887 383.357788 471.621887 C 387.170288 463.116699 389.753632 454.111206 391.029633 444.881897 C 391.847321 438.434021 390.378571 431.897461 386.873383 426.423218 C 383.368164 420.949219 378.050415 416.876282 371.84671 414.923218 C 342.425385 405.740967 307.909363 391.668579 302.08136 364.079224 C 298.482452 347.043213 306.92511 329.423218 327.174713 311.704529 Z"/>
        <path id="path1" fill="#000000" stroke="none" d="M 236.546677 538.333313 C 238.45813 484.677307 279.697327 448.338684 281.453339 446.817322 L 281.458527 446.817322 C 287.682526 441.442383 297.089203 442.119446 302.485199 448.327759 C 307.881195 454.536011 307.240417 463.937073 301.052948 469.358398 C 300.719604 469.650085 267.708954 499.077087 266.391602 539.645081 C 265.558258 565.186401 277.469757 590.467773 301.798279 614.795776 C 304.600403 617.592651 306.173218 621.394653 306.173218 625.353027 C 306.173218 629.31665 304.600281 633.113525 301.803467 635.915649 C 299.001343 638.717773 295.199341 640.290527 291.240936 640.290527 C 287.277344 640.290527 283.48056 638.712402 280.678406 635.910278 C 250.178406 605.410278 235.329086 572.582275 236.547745 538.331604 Z"/>
        <path id="path2" fill="#000000" stroke="none" d="M 145.506668 536.52002 C 148.491074 452.774658 212.995987 395.946655 215.741333 393.573303 C 221.970535 388.182678 231.392014 388.854553 236.793335 395.073303 C 242.194397 401.292114 241.532944 410.713318 235.319336 416.125305 C 234.746414 416.625305 177.731339 467.208008 175.345993 537.849304 C 173.840805 582.453308 194.272659 626.265381 236.080673 668.073364 C 238.882797 670.875488 240.455612 674.672241 240.460938 678.630615 C 240.460938 682.594238 238.888 686.391113 236.085999 689.193237 C 233.283875 691.995361 229.487061 693.568115 225.523453 693.568115 C 221.559875 693.568115 217.763062 691.98999 214.966125 689.187866 C 166.976791 641.203857 143.606125 589.838501 145.507462 536.521179 Z"/>
    </g>
</svg>
