<?xml version="1.0" encoding="UTF-8"?>
<!-- Generated by Pixelmator Pro 3.1.1 -->
<svg width="1006" height="1075" viewBox="0 0 1006 1075" xmlns="http://www.w3.org/2000/svg" xmlns:xlink="http://www.w3.org/1999/xlink">
    <g id="Group">
        <path id="Path" fill="#000000" stroke="none" d="M 838.666687 513.106628 C 838.677063 487.997314 829.15625 463.814636 812.03595 445.450684 C 813.197449 439.028809 813.780762 432.518372 813.775635 425.997314 C 813.806885 401.742676 805.957825 378.137329 791.40094 358.731995 C 776.848938 339.330688 756.379639 325.185303 733.088928 318.429321 C 743.510803 294.017334 740.193054 265.90802 724.370117 244.596008 C 708.547485 223.283997 682.599426 211.976013 656.219482 214.888 C 647.245483 195.726685 631.599426 180.486694 612.208801 172.018677 C 592.818115 163.544678 571.011475 162.424927 550.848816 168.857178 C 530.692749 175.28949 513.567444 188.835876 502.666138 206.977173 C 491.114014 187.774536 472.608795 173.763855 450.994141 167.857178 C 429.379486 161.94574 406.322144 164.591614 386.608795 175.247864 C 366.895477 185.898926 352.046143 203.737183 345.144806 225.054504 C 342.415619 233.705627 340.978119 242.7052 340.889618 251.773193 L 340.889618 313.997192 C 340.889618 320.872131 346.457336 326.43988 353.332275 326.43988 C 360.207184 326.43988 365.774933 320.872131 365.774933 313.997192 L 365.774933 251.773193 C 365.889526 245.335754 366.905151 238.945068 368.790527 232.783875 C 374.910248 213.835876 389.733185 198.955872 408.659882 192.767883 C 427.586548 186.575195 448.337189 189.820007 464.471893 201.49707 C 480.60788 213.168945 490.17984 231.861084 490.221191 251.773071 L 490.221191 313.99707 C 490.221191 320.872009 495.78894 326.439758 502.663849 326.439758 C 509.538818 326.439758 515.106506 320.872009 515.106506 313.99707 L 515.106506 251.773071 C 515.148193 231.861084 524.721069 213.169067 540.855835 201.49707 C 556.991882 189.820007 577.741211 186.575745 596.667847 192.767883 C 615.594543 198.955322 630.417175 213.835876 636.53717 232.783875 C 638.698669 239.059875 645.297607 242.638 651.734558 241.023438 C 655.875183 239.89325 660.145996 239.320374 664.437561 239.330811 C 681.244263 239.341187 696.91626 247.830811 706.098938 261.909485 C 715.286438 275.982788 716.744812 293.742798 709.984436 309.133484 C 708.984436 311.539734 707.729187 313.836548 706.25 315.98761 C 705.994812 316.357361 705.765625 316.73761 705.557312 317.133423 L 705.046875 318.029236 C 704.411438 318.680298 703.838562 319.388611 703.338623 320.143799 C 700.864624 323.742737 700.458313 328.372986 702.265686 332.346863 C 704.073059 336.32074 707.828186 339.055115 712.16156 339.560486 C 733.328186 342.044861 752.838867 352.227112 766.984192 368.16449 C 781.129578 384.107117 788.926941 404.685791 788.885559 425.997803 C 788.890808 432.862305 788.057434 439.705811 786.395996 446.367126 C 786.140686 447.398376 786.015686 448.455688 786.020996 449.518188 C 786.020996 452.997375 787.479309 456.320313 790.041748 458.674438 C 802.010559 469.789001 809.953796 484.554443 812.6297 500.663818 L 714.217773 500.663818 C 707.342834 500.663818 701.769897 506.236755 701.769897 513.106506 C 701.769897 519.981384 707.342834 525.554321 714.217773 525.554321 L 812.701721 525.554321 C 810.540283 538.757385 804.795471 551.117004 796.087097 561.27832 C 793.889221 563.861633 792.837097 567.226196 793.175598 570.596069 C 793.51416 573.971008 795.211975 577.059631 797.878662 579.153381 C 812.389343 590.512695 822.097351 606.918701 825.072021 625.106689 L 664.432007 625.106689 L 664.432007 326.440063 C 664.432007 319.570313 658.864319 313.997375 651.98938 313.997375 C 645.114441 313.997375 639.546692 319.570313 639.546692 326.440063 L 639.546692 625.106689 L 515.098633 625.106689 L 515.098633 450.893372 C 515.098633 444.289246 512.478943 437.961121 507.812286 433.294739 C 503.14563 428.622864 496.812286 426.002991 490.213623 426.002991 L 403.098969 426.002991 C 396.229218 426.002991 390.656281 431.575928 390.656281 438.445679 C 390.656281 445.320618 396.229218 450.893555 403.098969 450.893555 L 490.208282 450.893555 L 490.213501 625.106812 L 440.432159 625.106812 L 440.432159 513.106873 C 440.432159 506.507935 437.812408 500.174622 433.145752 495.508179 C 428.479095 490.841797 422.145752 488.221802 415.547119 488.221802 L 291.099091 488.221802 C 284.500153 488.221802 278.166809 490.841553 273.500427 495.508179 C 268.834045 500.174866 266.21402 506.50824 266.21402 513.106873 L 266.21402 575.330872 C 266.21402 582.205811 271.781769 587.77356 278.656677 587.77356 C 285.531616 587.77356 291.099365 582.205811 291.099365 575.330872 L 291.099365 513.106873 L 415.547363 513.106873 L 415.547363 625.106812 C 415.547363 631.71106 418.167114 638.039185 422.833771 642.705566 C 427.500458 647.377441 433.833771 649.997314 440.432465 649.997314 L 577.325745 649.997314 L 577.325745 824.223877 C 577.325745 831.093628 582.898743 836.666626 589.768433 836.666626 C 596.643372 836.666626 602.216309 831.093628 602.216309 824.223877 L 602.216309 724.666626 L 676.882996 724.666626 L 676.882996 761.999878 C 676.882996 768.874878 682.450684 774.442627 689.325623 774.442627 C 696.200562 774.442627 701.768311 768.874878 701.768311 761.999878 L 701.768311 724.666626 C 701.768311 718.067627 699.14856 711.734375 694.481873 707.067993 C 689.815247 702.401489 683.481873 699.776245 676.88324 699.776245 L 602.216553 699.776245 L 602.216553 650.000244 L 838.656555 650.000244 C 841.95874 650.000244 845.120178 648.687744 847.45874 646.35437 C 849.792053 644.020996 851.099365 640.85437 851.099365 637.557373 C 851.203552 611.360107 840.859802 586.202759 822.354004 567.656067 C 832.99469 551.45343 838.660706 532.494751 838.656738 513.109436 Z"/>
        <path id="path1" fill="#000000" stroke="none" d="M 804.893311 689.82666 C 796.023621 698.878784 784.986633 705.504028 772.825378 709.077393 C 767.09613 710.785645 763.387878 716.33252 764.00238 722.280396 C 764.044006 723.077271 764.044006 723.874146 764.00238 724.671021 C 764.080505 744.39502 757.43988 763.556396 745.163757 778.993774 C 732.892883 794.436401 715.726379 805.233765 696.49176 809.603027 C 691.752136 811.040527 688.137634 814.884277 686.981323 819.696777 C 686.746948 820.592651 686.533386 821.524902 686.257385 822.3479 L 685.52301 824.837524 C 684.778198 827.228149 684.007385 829.62915 683.033386 832.040527 L 683.038635 832.040527 C 672.882324 857.280518 651.517273 876.327209 625.278625 883.529846 C 599.043945 890.727722 570.945251 885.259033 549.330627 868.737854 C 527.710571 852.216553 515.054565 826.544556 515.111938 799.336548 L 515.111938 712.227173 C 515.111938 705.623047 512.492188 699.294922 507.825562 694.62854 C 503.158905 689.956665 496.825562 687.336792 490.226898 687.336792 L 440.445557 687.336792 C 433.846588 687.336792 427.513275 689.956543 422.846893 694.62854 C 418.180206 699.295166 415.560455 705.623291 415.560455 712.227173 L 415.560455 749.560547 L 365.779144 749.560547 L 365.779144 575.333862 C 365.779144 568.458923 360.211395 562.891174 353.336456 562.891174 C 346.461548 562.891174 340.893799 568.458923 340.893799 575.333862 L 340.893799 625.109863 L 241.336472 625.109863 C 234.461548 625.109863 228.893799 630.682739 228.893799 637.557739 C 228.893799 644.42749 234.461548 650.000366 241.336472 650.000366 L 340.893799 650.000366 L 340.893799 749.557739 C 340.893799 756.156616 343.51355 762.48999 348.180206 767.156372 C 352.846893 771.822754 359.180206 774.442749 365.77887 774.442749 L 415.560211 774.442749 C 422.159149 774.442749 428.492462 771.82312 433.158905 767.156372 C 437.825287 762.489746 440.445282 756.156372 440.445282 749.557739 L 440.445282 712.224365 L 490.221283 712.224365 L 490.221283 799.33374 L 490.226471 799.33374 C 490.226471 830.453735 473.622467 859.213684 446.669159 874.776367 C 419.71582 890.33374 386.513153 890.33374 359.559814 874.776367 C 332.606476 859.213684 316.002472 830.453735 316.002472 799.33374 C 316.00769 795.67749 316.231659 792.026367 316.674347 788.39624 C 317.502472 781.578491 312.648346 775.380615 305.835846 774.541626 C 302.554626 774.104126 299.231689 775.005127 296.622223 777.041626 C 294.012909 779.083252 292.335846 782.088501 291.971161 785.385376 C 291.403442 790.010376 291.117004 794.671753 291.111786 799.333374 C 291.111786 800.677124 291.309692 801.994751 291.361786 803.338501 C 276.383118 796.369751 263.716431 785.255859 254.845779 771.317261 C 245.981262 757.374512 241.293777 741.186523 241.335129 724.666504 C 241.314285 723.869629 241.335129 723.072754 241.397629 722.275879 C 241.98616 716.322754 238.251755 710.791504 232.512161 709.109253 C 217.105484 704.499878 203.594833 695.05188 193.981491 682.166504 C 184.361755 669.275879 179.148148 653.635864 179.112167 637.557251 C 179.018417 614.754517 189.481888 593.193237 207.450821 579.155884 C 210.117493 577.062134 211.815353 573.973572 212.153885 570.598572 C 212.492432 567.228821 211.440353 563.864136 209.242432 561.280823 C 197.732025 547.879456 191.455765 530.775452 191.559753 513.108826 C 191.533707 492.45282 200.137894 472.71814 215.289078 458.676819 C 218.648422 455.588257 220.0495 450.911194 218.934952 446.484131 C 217.268295 439.781067 216.434952 432.905457 216.445358 426.000122 C 216.403687 404.68811 224.195358 384.104126 238.341354 368.161438 C 252.486694 352.218811 272.002686 342.036133 293.169342 339.546814 C 297.64856 339.031189 301.497498 336.130127 303.226685 331.968689 C 304.96109 327.80719 304.30481 323.031189 301.518433 319.489441 C 294.846558 310.885315 291.185089 300.328125 291.106934 289.44281 C 291.023621 278.557312 294.528839 267.94281 301.070557 259.245483 C 305.195618 253.745483 304.080963 245.948547 298.580963 241.824158 C 293.080963 237.699707 285.283997 238.813721 281.159607 244.313721 C 271.425232 257.214783 266.180939 272.949707 266.2276 289.111084 C 266.232819 299.194397 268.274536 309.168396 272.222412 318.444397 C 248.935745 325.204773 228.477097 339.356384 213.93042 358.751038 C 199.383759 378.152405 191.529099 401.751038 191.561081 426.001709 C 191.555878 432.532959 192.139206 439.048645 193.290298 445.475037 C 178.144958 461.751038 168.894287 482.631042 167.024948 504.781738 C 165.150024 526.937744 170.76976 549.07373 182.972961 567.656433 C 164.467621 586.203125 154.123627 611.359009 154.227615 637.557739 C 154.284912 657.396362 160.243225 676.771118 171.347626 693.213745 C 182.451767 709.656372 198.19162 722.421753 216.571609 729.896362 C 217.545593 753.036377 225.712296 775.297729 239.926285 793.589722 C 254.139633 811.876343 273.69696 825.283081 295.879608 831.939087 C 304.567108 860.564392 324.338287 884.52301 350.796967 898.480408 C 377.255615 912.437744 408.192963 915.235046 436.723633 906.240784 C 465.250275 897.251221 488.999634 877.219482 502.671631 850.615479 C 515.822632 876.178162 538.296936 895.70343 565.442322 905.151428 C 592.592957 914.604553 622.332947 913.255615 648.515625 901.380676 C 674.692932 889.510925 695.307617 868.031311 706.088928 841.385986 C 707.33374 838.385986 708.281616 835.37561 709.260803 832.328613 L 709.375427 831.932861 L 709.375427 831.927612 C 731.578064 825.286987 751.156738 811.891602 765.386047 793.599609 C 779.620789 775.307617 787.792725 753.036987 788.771423 729.880981 C 801.510986 724.755859 813.052734 717.047607 822.667419 707.244995 C 825.037109 704.901245 826.360107 701.703369 826.354919 698.369995 C 826.344482 695.04187 825.000732 691.85437 822.620422 689.521118 C 820.240234 687.187744 817.026794 685.906494 813.698547 685.963745 C 810.365234 686.020996 807.198547 687.411621 804.896484 689.82312 Z"/>
        <path id="path2" fill="#000000" stroke="none" d="M 577.333313 538 C 580.635437 538 583.796936 536.6875 586.135437 534.354126 C 588.468811 532.020813 589.776123 528.854126 589.776123 525.55719 L 589.776123 239.330505 C 589.776123 232.455627 584.208435 226.887878 577.333435 226.887878 C 570.458557 226.887878 564.890808 232.455627 564.890808 239.330505 L 564.890808 363.773193 L 353.33078 363.773193 C 346.731873 363.773193 340.398529 366.398254 335.732147 371.064941 C 331.065735 375.731628 328.440399 382.064941 328.440399 388.663574 L 328.440399 438.439575 C 328.440399 445.314514 334.013336 450.887451 340.888275 450.887451 C 347.757996 450.887451 353.330933 445.314514 353.330933 438.439575 L 353.330933 388.663574 L 564.89093 388.663574 L 564.89093 525.556946 C 564.89093 528.853882 566.198242 532.020569 568.531616 534.353882 C 570.870117 536.687195 574.031616 537.999695 577.33374 537.999695 Z"/>
    </g>
</svg>
