<?xml version="1.0" encoding="UTF-8"?>
<!-- Generated by Pixelmator Pro 3.1.1 -->
<svg width="675" height="668" viewBox="0 0 675 668" xmlns="http://www.w3.org/2000/svg" xmlns:xlink="http://www.w3.org/1999/xlink">
    <g id="Group">
        <path id="Path" fill="#000000" stroke="none" d="M 57.960007 490.800018 C 72.709335 500.633331 88.454666 508.88797 104.929337 515.436035 L 92.6064 647.597351 C 92.153275 652.529602 93.674118 657.441101 96.835587 661.247986 C 100.002258 665.055359 104.549194 667.451111 109.481461 667.909485 L 111.273193 667.909485 C 120.919067 667.909485 128.981201 660.560547 129.866547 650.956116 L 141.288391 527.237427 C 149.574799 529.32605 157.939056 531.268677 166.673737 532.763428 L 166.678925 532.758301 C 190.001617 536.841553 213.632294 538.914551 237.309601 538.956177 C 248.809601 538.956177 260.184296 538.435303 271.434937 537.388428 C 292.497589 535.429932 311.680267 524.435303 324.00827 507.248383 C 336.341583 490.060394 340.617584 468.373749 335.721893 447.789703 C 336.086456 440.362671 337.492676 433.024384 339.904144 425.987061 L 343.565582 416.132935 C 346.607208 407.382935 345.904144 397.76358 341.622925 389.54892 C 337.419891 381.481201 330.070801 375.507629 321.310944 373.048889 C 292.565582 365.132263 274.717621 350.199585 269.565582 329.966248 L 269.570801 329.966248 C 299.02951 333.658936 328.893463 332.497498 357.972168 326.528809 C 366.08667 324.606934 371.936157 317.533997 372.310822 309.206116 L 374.998291 256.195435 C 391.654297 251.872498 407.019592 243.601746 419.800964 232.075439 C 427.535339 224.893188 432.754028 215.403442 434.675598 205.023438 C 436.597473 194.638 435.128723 183.914124 430.477722 174.435486 C 425.160034 164.727173 417.248535 156.686096 407.628418 151.211487 C 374.081757 129.774109 354.435089 92.138123 356.035065 52.356812 C 356.701752 40.742249 356.701752 29.096802 356.035065 17.487427 C 355.33194 7.174927 346.404816 -0.611206 336.097748 0.086121 C 325.790405 0.789246 317.999115 9.71637 318.701752 20.023438 C 319.295502 30.221313 319.295502 40.439453 318.701752 50.638123 C 316.311066 103.575439 342.280426 153.783447 386.868408 182.424805 C 390.660156 184.492554 393.988159 187.31543 396.649597 190.711182 C 398.972534 195.440369 397.946472 201.133057 394.11322 204.747192 C 382.535065 214.544128 368.383881 220.788513 353.3479 222.741882 C 344.5979 224.15332 338.050537 231.512634 337.665192 240.367188 L 335.352692 292.632507 C 314.311371 295.413696 292.998016 295.413696 271.956665 292.632507 C 260.441071 291.09613 248.894012 295.24707 240.992676 303.773193 C 233.096802 312.294006 229.826019 324.122498 232.237457 335.491882 C 236.419769 355.429199 251.649506 390.893188 306.904144 407.69455 L 304.664551 414.116364 L 304.659332 414.116364 C 300.143768 426.798676 298.13855 440.23642 298.763458 453.689728 C 298.867645 454.46579 299.013458 455.241852 299.211395 456.002228 C 301.940582 466.262665 299.971802 477.204926 293.836456 485.866241 C 287.862457 494.392242 278.44046 499.855591 268.076447 500.803589 C 236.44046 503.339996 204.607147 501.70462 173.399139 495.949463 C 139.773804 490.668243 107.639145 478.3508 79.092468 459.809448 C 61.269791 449.028229 46.368469 434.028107 35.712463 416.132111 C 30.70726 407.429077 19.712463 404.251862 10.832474 408.929077 C 1.952194 413.611328 -1.63633 424.481049 2.712723 433.52771 C 16.124741 456.882416 35.103394 476.554413 57.963394 490.79837 Z"/>
        <path id="path1" fill="#000000" stroke="none" d="M 415.17334 421.279999 C 410.892151 423.884125 407.834778 428.102936 406.694153 432.983063 C 405.558716 437.86853 406.428528 442.998657 409.116028 447.233734 C 411.803467 451.462921 416.07959 454.436798 420.985718 455.483734 C 425.88678 456.525391 431.001343 455.556641 435.183044 452.791046 C 454.901733 440.181732 469.115051 420.572388 474.959045 397.911041 C 480.807983 375.244385 477.849731 351.208435 466.693481 330.635071 C 461.745605 321.582947 450.390808 318.254822 441.344116 323.20282 C 432.291992 328.155884 428.963867 339.505432 433.911865 348.557434 C 440.547302 360.802307 442.297302 375.109436 438.823303 388.598785 C 435.349304 402.088135 426.896301 413.760132 415.172668 421.281464 Z"/>
        <path id="path2" fill="#000000" stroke="none" d="M 493.200012 528.133301 C 497.434387 528.128174 501.543762 526.680298 504.845886 524.024048 C 536.976501 498.106659 559.872559 462.497314 570.111145 422.508026 C 580.35083 382.513336 577.387207 340.283997 561.668518 302.117371 C 557.616394 292.773621 546.824524 288.403992 537.413879 292.294373 C 528.00238 296.185059 523.444519 306.898376 527.174255 316.377075 C 539.742004 347.085083 542.059631 381.033081 533.768005 413.163727 C 525.481628 445.294403 507.033325 473.882416 481.179993 494.679718 C 474.75293 499.627594 472.25293 508.153076 474.992493 515.789063 C 477.737366 523.419312 485.09668 528.408813 493.2005 528.132813 Z"/>
        <path id="path3" fill="#000000" stroke="none" d="M 632 261.640015 C 622.427063 265.390015 617.687988 276.170654 621.395813 285.76001 C 639.759827 334.353333 642.655823 387.437347 629.677063 437.733307 C 616.697815 488.036011 588.479736 533.093384 548.895752 566.728027 C 544.749878 569.785278 542.05719 574.415527 541.442688 579.524902 C 540.828064 584.634277 542.348938 589.769775 545.65094 593.718262 C 548.947876 597.671387 553.734314 600.082764 558.86969 600.384888 C 564.010437 600.692261 569.041565 598.858887 572.787048 595.327637 C 618.281738 556.682251 650.708435 504.90625 665.60968 447.100952 C 680.516418 389.298248 677.172302 328.298279 656.041992 272.474243 C 652.380554 262.854553 641.625977 258.010254 632.000671 261.646118 Z"/>
    </g>
</svg>
