<?xml version="1.0" encoding="UTF-8"?>
<!-- Generated by Pixelmator Pro 3.1.1 -->
<svg width="872" height="570" viewBox="0 0 872 570" xmlns="http://www.w3.org/2000/svg" xmlns:xlink="http://www.w3.org/1999/xlink">
    <g id="Group">
        <path id="Path" fill="#000000" stroke="none" d="M 674.34668 222.533325 C 685.544495 212.080261 692.268005 197.893311 692.268005 181.465332 C 692.268005 150.850647 666.882629 125.465332 636.268005 125.465332 C 605.65332 125.465332 580.268005 150.850647 580.268005 181.465332 C 580.268005 197.892029 586.986816 212.080017 598.189331 222.533325 C 565.334656 235.970642 540.694641 266.585327 536.216003 303.17334 C 521.283997 294.214905 504.856018 287.490662 488.429321 282.266663 C 519.044006 264.345337 539.200012 230.745361 539.200012 192.66803 C 539.200012 135.17334 492.15863 88.137329 434.669342 88.137329 C 377.174683 88.137329 330.138672 135.17865 330.138672 192.66803 C 330.138672 230.746643 350.300018 263.600037 380.909332 282.266663 C 363.737335 286.74585 347.310669 294.214539 333.122681 303.17334 C 328.643463 266.585327 304.002655 235.976013 271.149323 222.533325 C 282.347198 212.080261 289.070648 197.893311 289.070648 181.465332 C 289.070648 150.850647 263.685333 125.465332 233.070648 125.465332 C 202.455994 125.465332 177.070663 150.850647 177.070663 181.465332 C 177.070663 197.892029 183.789474 212.080017 194.992004 222.533325 C 158.403992 237.465332 132.273331 274.054626 132.273331 315.866638 C 132.273331 321.840637 137.502533 327.064514 143.471191 327.064514 C 149.44519 327.064514 154.669067 321.835327 154.669067 315.866638 C 154.669067 272.559998 189.76239 237.465332 233.070404 237.465332 C 276.373077 237.47052 311.4664 272.564026 311.4664 315.866638 L 311.4664 318.106262 C 265.919739 354.694244 236.799713 409.944946 236.799713 472.66626 C 236.799713 478.640259 242.028931 483.864136 247.997589 483.864136 C 253.971588 483.864136 259.195465 478.634918 259.195465 472.66626 C 259.195465 375.598267 337.596802 297.199585 434.66214 297.199585 C 531.727478 297.199585 610.128784 375.600952 610.128784 472.66626 C 610.128784 478.640259 615.357971 483.864136 621.32666 483.864136 C 627.300659 483.864136 632.524536 478.634918 632.524536 472.66626 C 632.524536 409.947601 603.404541 353.947601 557.857849 318.106262 L 557.857849 315.866638 C 557.857849 272.559998 592.951233 237.465332 636.259216 237.465332 C 679.565857 237.47052 714.660583 272.564026 714.660583 315.866638 C 714.660583 321.840637 719.889709 327.064514 725.858398 327.064514 C 731.832458 327.064514 737.056213 321.835327 737.056213 315.866638 C 737.061462 274.054626 710.925598 237.470642 674.342957 222.533325 Z M 199.466675 181.470642 C 199.466675 162.804016 214.398666 147.872009 233.065338 147.872009 C 251.731995 147.872009 266.664001 162.804016 266.664001 181.470642 C 266.664001 200.137329 251.731995 215.069336 233.065338 215.069336 C 214.398666 215.069336 199.466675 200.137329 199.466675 181.470642 Z M 352.533325 192.668518 C 352.533325 147.121887 389.121338 110.532532 434.669342 110.532532 C 480.217346 110.532532 516.805359 147.120544 516.805359 192.668518 C 516.805359 238.216553 480.217346 274.804504 434.669342 274.804504 C 389.121338 274.804504 352.533325 238.216553 352.533325 192.668518 Z M 602.666687 181.470642 C 602.666687 162.804016 617.598694 147.872009 636.26532 147.872009 C 654.931946 147.872009 669.864014 162.804016 669.864014 181.470642 C 669.864014 200.137329 654.931946 215.069336 636.26532 215.069336 C 617.598694 215.069336 602.666687 200.137329 602.666687 181.470642 Z"/>
    </g>
</svg>
