<?xml version="1.0" encoding="UTF-8" standalone="no"?>
<!DOCTYPE svg PUBLIC "-//W3C//DTD SVG 1.1//EN" "http://www.w3.org/Graphics/SVG/1.1/DTD/svg11.dtd">
<svg width="100%" height="100%" viewBox="0 0 567 541" version="1.1" xmlns="http://www.w3.org/2000/svg" xmlns:xlink="http://www.w3.org/1999/xlink" xml:space="preserve" xmlns:serif="http://www.serif.com/" style="fill-rule:evenodd;clip-rule:evenodd;stroke-linejoin:round;stroke-miterlimit:2;">
    <g transform="matrix(0.48,0,0,0.48,0,0)">
        <g id="IUK-CMYK" transform="matrix(4.16667,0,0,4.16667,0,0)">
            <g transform="matrix(1,0,0,1,0,-93)">
                <rect x="0" y="110.758" width="141.733" height="141.732" style="fill:rgb(33,31,94);"/>
            </g>
            <g transform="matrix(1,0,0,1,109.608,88.6232)">
                <path d="M0,0L-22.216,0L-22.216,-23.724L0,0ZM-19.371,44.105L-38.742,44.105L-38.742,51.85L-52.377,33.981C-41.996,32.07 -36.635,26.702 -36.635,17.354C-36.635,15.048 -36.964,12.989 -37.612,11.163L-19.371,11.163L-19.371,44.105ZM-77.485,11.163L-62.364,11.163C-56.148,11.163 -53.629,13.573 -53.629,17.354C-53.629,21.136 -56.148,23.622 -62.364,23.622L-77.485,23.622L-77.485,11.163ZM-38.742,-16.908L-38.742,8.733C-42.261,2.792 -50.354,0.032 -62.364,0.002C-51.647,-1.086 -41.739,-6.869 -38.742,-16.908M16.526,-55.268L0,-55.268L-22.216,-31.61L-22.216,-55.268L-54.32,-55.268L-54.32,-23.862C-54.32,-17.138 -59.298,-13.235 -65.902,-13.235C-72.506,-13.235 -77.485,-17.138 -77.485,-23.862L-77.485,-55.268L-94.011,-55.268L-94.011,-23.622C-94.011,-9.449 -82.568,-1.318 -69.66,0L-94.011,0L-94.011,55.268L-77.485,55.268L-77.485,34.785L-70.266,34.785L-54.995,55.268L16.526,55.268L16.526,44.105L-2.845,44.105L-2.845,11.163L16.526,11.163L16.526,-3.417L-7.162,-27.672L16.526,-51.85L16.526,-55.268Z" style="fill:white;fill-rule:nonzero;"/>
            </g>
            <g transform="matrix(1,0,0,1,0,25.16)">
                <rect x="141.732" y="110.758" width="90.875" height="23.572" style="fill:rgb(86,20,89);"/>
            </g>
            <g transform="matrix(-1,0,0,1,494.728,-200.29)">
                <rect x="211.267" y="218.05" width="72.194" height="34.438" style="fill:rgb(86,20,89);"/>
            </g>
            <g transform="matrix(1,0,0,1,211.268,107.292)">
                <path d="M0,-55.095L0,-107.292L-69.535,-107.292L-69.535,28.626L21.339,28.626L21.339,52.197L72.194,52.197L72.194,-55.095L0,-55.095Z" style="fill:rgb(177,65,145);fill-rule:nonzero;"/>
            </g>
            <g transform="matrix(-1,0,0,1,37.687,143.331)">
                <rect x="15.646" y="47.357" width="6.395" height="32.203" style="fill:white;"/>
            </g>
            <g transform="matrix(1,0,0,1,49.8272,212.125)">
                <path d="M0,-1.701L0,10.766L-6.119,10.766L-6.119,-0.321C-6.119,-1.103 -5.567,-6.9 -9.983,-7.13C-12.146,-7.268 -16.01,-6.072 -16.01,-0.045L-16.01,10.766L-22.083,10.766L-22.083,-12.236L-17.391,-12.236L-16.608,-9.43L-15.826,-9.43C-14.86,-10.581 -12.698,-12.467 -8.833,-12.467C-2.898,-12.467 0,-8.05 0,-1.701" style="fill:white;fill-rule:nonzero;"/>
            </g>
            <g transform="matrix(1,0,0,1,76.877,212.125)">
                <path d="M0,-1.701L0,10.766L-6.118,10.766L-6.118,-0.321C-6.118,-1.103 -5.566,-6.9 -9.983,-7.13C-12.146,-7.268 -16.01,-6.072 -16.01,-0.045L-16.01,10.766L-22.082,10.766L-22.082,-12.236L-17.39,-12.236L-16.607,-9.43L-15.825,-9.43C-14.859,-10.581 -12.697,-12.467 -8.833,-12.467C-2.898,-12.467 0,-8.05 0,-1.701" style="fill:white;fill-rule:nonzero;"/>
            </g>
            <g transform="matrix(1,0,0,1,98.3145,211.39)">
                <path d="M0,0C0,-3.589 -2.116,-6.395 -5.612,-6.395C-9.109,-6.395 -11.455,-3.589 -11.455,0C-11.455,3.588 -9.109,6.395 -5.612,6.395C-2.116,6.395 0,3.588 0,0M-17.482,0.046C-17.482,-7.314 -11.777,-11.731 -5.612,-11.731C0.598,-11.731 6.026,-7.269 6.026,-0.046C6.026,7.269 0.414,11.731 -5.797,11.731C-12.054,11.731 -17.482,7.269 -17.482,0.046" style="fill:white;fill-rule:nonzero;"/>
            </g>
            <g transform="matrix(1,0,0,1,129.459,222.891)">
                <path d="M0,-23.002L-7.453,0L-16.378,0L-23.831,-23.002L-17.712,-23.002L-12.375,-6.072L-11.455,-6.072L-6.118,-23.002L0,-23.002Z" style="fill:white;fill-rule:nonzero;"/>
            </g>
            <g transform="matrix(1,0,0,1,145.606,209.551)">
                <path d="M0,3.679L0,3.219C-4.187,3.679 -8.327,4.185 -8.327,6.577C-8.327,10.074 -0.368,9.798 0,3.679M8.373,8.924L8.373,13.34L6.993,13.34C4.324,13.34 2.438,12.374 1.656,10.396C0.276,12.283 -2.024,13.571 -5.612,13.571C-10.812,13.571 -14.124,10.902 -14.124,6.762C-14.124,-0.415 -4.324,-1.059 0.092,-1.29C0,-3.958 -1.472,-4.924 -3.818,-4.924C-7.085,-4.924 -7.314,-2.945 -7.314,-2.945L-13.065,-2.945C-12.651,-7.04 -9.293,-9.892 -3.681,-9.892C1.794,-9.892 5.659,-7.178 5.659,-0.508L5.659,5.612C5.659,8.28 6.625,8.924 8.373,8.924" style="fill:white;fill-rule:nonzero;"/>
            </g>
            <g transform="matrix(1,0,0,1,172.473,194.921)">
                <path d="M0,26.268C0,26.268 -1.933,28.201 -5.475,28.201C-9.892,28.201 -13.71,25.21 -13.71,20.564L-13.71,9.89L-18.311,9.89L-18.311,5.382L-16.01,5.382C-14.445,5.382 -13.388,4.324 -13.388,2.667L-13.388,-1.933L-7.821,-1.933L-7.821,4.968L-2.024,4.968L-2.024,9.89L-7.821,9.89L-7.821,20.196C-7.821,21.759 -6.533,22.955 -4.877,22.955C-3.496,22.955 -2.208,22.173 -2.208,22.173L0,26.268Z" style="fill:white;fill-rule:nonzero;"/>
            </g>
            <g transform="matrix(1,0,0,1,179.924,214.289)">
                <path d="M0,-5.797L10.352,-5.797C9.661,-8.511 7.775,-9.615 5.475,-9.615C2.944,-9.615 0.92,-8.19 0,-5.797M16.424,-1.151L-0.368,-1.151C0.322,2.346 3.175,3.634 5.659,3.634C8.787,3.634 10.121,1.702 10.121,1.702L15.918,1.702C14.17,6.303 9.983,8.833 5.475,8.833C-0.736,8.833 -6.165,4.095 -6.165,-3.083C-6.165,-10.213 -0.782,-14.63 5.291,-14.63C11.18,-14.63 17.16,-10.535 16.424,-1.151" style="fill:white;fill-rule:nonzero;"/>
            </g>
            <g transform="matrix(1,0,0,1,41.1329,251.845)">
                <path d="M0,4.37C0,14.262 -5.843,18.402 -12.928,18.402C-20.013,18.402 -25.947,14.262 -25.947,4.37L-25.947,-14.032L-19.552,-14.032L-19.552,3.91C-19.552,9.155 -17.344,12.329 -12.928,12.329C-8.511,12.329 -6.395,9.155 -6.395,3.91L-6.395,-14.032L0,-14.032L0,4.37Z" style="fill:white;fill-rule:nonzero;"/>
            </g>
            <g transform="matrix(1,0,0,1,55.5772,251.384)">
                <path d="M0,5.062L-2.669,5.062L-2.669,18.633L-8.833,18.633L-8.833,-13.571L-2.669,-13.571L-2.669,-0.918L-0.093,-0.918L8.051,-13.571L15.09,-13.571L5.061,2.072L16.47,18.633L9.385,18.633L0,5.062Z" style="fill:white;fill-rule:nonzero;"/>
            </g>
        </g>
    </g>
</svg>
